<?xml version="1.0" encoding="UTF-8" standalone="no"?><!DOCTYPE svg PUBLIC "-//W3C//DTD SVG 1.1//EN" "http://www.w3.org/Graphics/SVG/1.1/DTD/svg11.dtd"><svg width="100%" height="100%" viewBox="0 0 800 800" version="1.1" xmlns="http://www.w3.org/2000/svg" xmlns:xlink="http://www.w3.org/1999/xlink" xml:space="preserve" xmlns:serif="http://www.serif.com/" style="fill-rule:evenodd;clip-rule:evenodd;stroke-linejoin:round;stroke-miterlimit:2;"><g id="Layer1"><rect x="0" y="0" width="800" height="800"/></g><g id="command-line"><g><path d="M790,790l-780,0l0,-780l780,0l0,780Zm-715,-65l650,0l0,-650l-520,0l0,65l520,0l0,65l-650,0l0,520Zm0,-585l65,0l0,-65l-65,0l0,65Zm455,390l-195,0l0,-65l195,0l0,65Zm-334.75,-9.75l-45.5,-45.5l74.75,-74.75l-74.75,-74.75l45.5,-45.5l120.25,120.25l-120.25,120.25Z" style="fill:#fff;fill-rule:nonzero;"/></g></g></svg>